<?xml version="1.0" standalone="no"?>
<!DOCTYPE svg PUBLIC "-//W3C//DTD SVG 20010904//EN"
 "http://www.w3.TR/2001/REC-SVG-20010904/DTD/svg10.dtd">
<svg version="1.0" xmlns="http://www.w3.org/2000/svg"
 width="1024" height="1024" viewBox="150 150 725 700"
 preserveAspectRatio="xMidYMid meet">

<g transform="translate(0,1024) scale(0.100000,-0.100000)"
fill="#D3D3D3" stroke="none">
<path d="M2740 7465 l0 -125 890 0 890 0 0 125 0 125 -890 0 -890 0 0 -125z"/>
<path d="M2275 7130 c-55 -25 -86 -62 -100 -118 -16 -63 -6 -101 61 -234 116
-231 448 -818 659 -1165 169 -277 642 -1020 904 -1419 115 -176 255 -390 311
-475 367 -563 581 -877 610 -898 68 -46 169 -23 224 51 l21 28 0 1787 c0 983
-2 1913 -5 2068 l-5 281 -29 37 c-16 21 -47 47 -70 57 -39 18 -92 19 -1291 19
-1194 0 -1252 -1 -1290 -19z"/>
</g>

<g transform="translate(1024,1024) scale(-0.100000,-0.100000)"
fill="#D3D3D3" stroke="none">
<path d="M2740 7465 l0 -125 890 0 890 0 0 125 0 125 -890 0 -890 0 0 -125z"/>
<path d="M2275 7130 c-55 -25 -86 -62 -100 -118 -16 -63 -6 -101 61 -234 116
-231 448 -818 659 -1165 169 -277 642 -1020 904 -1419 115 -176 255 -390 311
-475 367 -563 581 -877 610 -898 68 -46 169 -23 224 51 l21 28 0 1787 c0 983
-2 1913 -5 2068 l-5 281 -29 37 c-16 21 -47 47 -70 57 -39 18 -92 19 -1291 19
-1194 0 -1252 -1 -1290 -19z"/>
</g>
</svg>